HIERARCHY
ROOT Hips
{
	OFFSET 0.000000 0.000000 0.000000
	CHANNELS 6 Xposition Yposition Zposition Zrotation Yrotation Xrotation 
	JOINT LeftUpLeg_virtual
	{
		OFFSET 0.000000 0.000000 0.000000
		CHANNELS 3 Zrotation Yrotation Xrotation
		JOINT LeftUpLeg
		{
			OFFSET 8.479694 -4.795517 -0.379053
			CHANNELS 3 Zrotation Yrotation Xrotation
			JOINT LeftLeg
			{
				OFFSET 0.485052 -32.551468 0.112863
				CHANNELS 3 Zrotation Yrotation Xrotation
				JOINT LeftFoot
				{
					OFFSET 0.438033 -32.635670 -3.012641
					CHANNELS 3 Zrotation Yrotation Xrotation
					JOINT LeftToeBase
					{
						OFFSET 0.970169 -13.225353 11.864223
						CHANNELS 3 Zrotation Yrotation Xrotation
						End Site
						{
							OFFSET 0.000000 0.000000 0.000000
						}
					}
				}
			}
		}
	}
	JOINT RightUpLeg_virtual
	{
		OFFSET 0.000000 0.000000 0.000000
		CHANNELS 3 Zrotation Yrotation Xrotation
		JOINT RightUpLeg
		{
			OFFSET -8.479694 -4.795517 -0.379053
			CHANNELS 3 Zrotation Yrotation Xrotation
			JOINT RightLeg
			{
				OFFSET -0.484100 -32.551483 0.112903
				CHANNELS 3 Zrotation Yrotation Xrotation
				JOINT RightFoot
				{
					OFFSET -0.438985 -32.635651 -3.012681
					CHANNELS 3 Zrotation Yrotation Xrotation
					JOINT RightToeBase
					{
						OFFSET -0.970169 -13.225354 11.864223
						CHANNELS 3 Zrotation Yrotation Xrotation
						End Site
						{
							OFFSET 0.000000 0.000000 0.000000
						}
					}
				}
			}
		}
	}
	JOINT Spine_virtual
	{
		OFFSET 0.000000 0.000000 0.000000
		CHANNELS 3 Zrotation Yrotation Xrotation
		JOINT Spine
		{
			OFFSET 0.000000 7.722015 1.166203
			CHANNELS 3 Zrotation Yrotation Xrotation
			JOINT Spine1
			{
				OFFSET 0.000000 12.024086 0.248766
				CHANNELS 3 Zrotation Yrotation Xrotation
				JOINT Spine2
				{
					OFFSET -0.000000 11.503036 -0.491240
					CHANNELS 3 Zrotation Yrotation Xrotation
					JOINT Neck_virtual
					{
						OFFSET 0.000000 0.000000 0.000000
						CHANNELS 3 Zrotation Yrotation Xrotation
						JOINT Neck
						{
							OFFSET 0.000000 18.430687 -3.123054
							CHANNELS 3 Zrotation Yrotation Xrotation
							JOINT Head
							{
								OFFSET -0.000000 9.051071 1.034021
								CHANNELS 3 Zrotation Yrotation Xrotation
								End Site
								{
									OFFSET 0.000000 0.000000 0.000000
								}
							}
						}
					}
					JOINT LeftShoulder_virtual
					{
						OFFSET 0.000000 0.000000 0.000000
						CHANNELS 3 Zrotation Yrotation Xrotation
						JOINT LeftShoulder
						{
							OFFSET 6.197824 13.665230 -4.064723
							CHANNELS 3 Zrotation Yrotation Xrotation
							JOINT LeftArm
							{
								OFFSET 7.778132 -0.187073 -1.709282
								CHANNELS 3 Zrotation Yrotation Xrotation
								JOINT LeftForeArm
								{
									OFFSET 21.954697 0.000000 -2.041093
									CHANNELS 3 Zrotation Yrotation Xrotation
									JOINT LeftHand
									{
										OFFSET 22.992908 0.000000 -0.870901
										CHANNELS 3 Zrotation Yrotation Xrotation
										End Site
										{
											OFFSET 0.000000 0.000000 0.000000
										}
									}
								}
							}
						}
					}
					JOINT RightShoulder_virtual
					{
						OFFSET 0.000000 0.000000 0.000000
						CHANNELS 3 Zrotation Yrotation Xrotation
						JOINT RightShoulder
						{
							OFFSET -6.197824 13.665230 -4.064723
							CHANNELS 3 Zrotation Yrotation Xrotation
							JOINT RightArm
							{
								OFFSET -7.778132 -0.187073 -1.709282
								CHANNELS 3 Zrotation Yrotation Xrotation
								JOINT RightForeArm
								{
									OFFSET -21.954697 0.000000 -2.041093
									CHANNELS 3 Zrotation Yrotation Xrotation
									JOINT RightHand
									{
										OFFSET -22.992908 0.000000 -0.870901
										CHANNELS 3 Zrotation Yrotation Xrotation
										End Site
										{
											OFFSET 0.000000 0.000000 0.000000
										}
									}
								}
							}
						}
					}
				}
			}
		}
	}
}
MOTION
Frames: 4
Frame Time: 0.033333
21.760790 80.843575 18.578299 179.905065 -14.616397 179.772491 -3.001733 -4.020914 13.845166 5.195251 -1.151167 -20.247783 4.999916 4.384007 25.097023 1.039686 -5.569119 -11.774513 0.000000 0.000000 0.000000 -1.233451 -5.925378 14.907707 0.546862 6.068040 -24.009604 0.038433 4.579654 25.680123 6.722430 5.819518 -8.660411 0.000000 0.000000 0.000000 3.726618 -0.180499 4.189390 -0.363332 -6.235224 -4.007008 2.831678 0.584024 0.479834 -0.009298 0.009166 -0.039083 2.083825 3.377212 11.427952 5.448998 -14.877721 2.053351 0.000000 0.000000 0.000000 3.398277 4.325271 7.150569 -4.911473 -5.586530 -5.003469 -1.663880 -25.917978 -52.547893 -2.693834 -33.541696 -17.498320 0.000000 0.000000 0.000000 -2.403363 6.817842 4.969885 27.996390 25.961616 -42.371581 -13.680299 -61.289261 -51.414864 177.493640 -4.882829 -171.721365 0.000000 0.000000 0.000000 
21.973225 80.773079 18.559683 179.990443 -12.795919 179.776535 -2.979243 -3.991895 13.670805 5.019345 -0.588465 -19.782791 5.354924 4.656051 25.236101 0.867903 -5.097551 -12.006193 0.000000 0.000000 0.000000 -1.321030 -5.970340 14.698591 0.648771 6.451751 -24.116978 0.257971 4.967126 25.810411 7.133904 6.163862 -8.559700 0.000000 0.000000 0.000000 3.823647 -0.262139 4.119001 -0.751859 -6.216064 -3.740037 3.294582 0.436423 0.285327 -0.019948 0.005485 -0.076940 2.444181 3.213460 11.545986 6.098402 -15.678761 1.667165 0.000000 0.000000 0.000000 3.782869 4.220465 7.191521 -5.702804 -5.398350 -5.011028 -2.192748 -25.353283 -50.578592 -2.629370 -33.201618 -17.105212 0.000000 0.000000 0.000000 -1.882521 6.716870 5.088780 27.272387 24.676811 -41.895226 -23.887957 -65.506671 -24.583128 178.060573 -1.842926 -171.856657 0.000000 0.000000 0.000000 
22.149647 80.688759 18.414574 179.949612 -10.845762 179.806123 -3.057379 -4.011587 13.695931 4.758056 0.059975 -19.415470 5.757752 5.028597 25.540833 0.877668 -4.713743 -12.232783 0.000000 0.000000 0.000000 -1.452326 -6.274841 14.649284 0.618857 6.883451 -24.406569 0.488396 5.415882 26.159525 7.781587 6.544420 -8.490274 0.000000 0.000000 0.000000 3.959930 -0.424706 3.939766 -1.218264 -6.094505 -3.518984 3.555710 0.236689 0.350326 -0.009460 0.013162 -0.057064 2.684908 3.034845 11.818030 6.536816 -16.315703 1.342281 0.000000 0.000000 0.000000 4.037267 4.092116 7.368076 -6.345756 -5.199076 -5.182788 -2.702216 -25.036255 -48.530352 -2.603237 -32.673924 -16.875799 0.000000 0.000000 0.000000 -1.558893 6.517096 5.605274 25.559277 23.403385 -41.026163 -50.827437 -64.129780 35.287486 178.791048 2.147886 -172.130903 0.000000 0.000000 0.000000 
22.302151 80.599220 18.248028 179.992560 -8.854160 179.841900 -3.053294 -4.009032 13.814970 4.510201 0.736703 -19.269594 6.159294 5.489625 25.869814 0.873643 -4.462246 -12.471201 0.000000 0.000000 0.000000 -1.443960 -6.512215 14.717770 0.499437 7.371863 -24.910465 0.699657 5.841708 26.550730 8.455340 6.834475 -8.457302 0.000000 0.000000 0.000000 4.273447 -0.586399 3.719742 -1.557051 -5.851439 -3.324588 3.702497 0.008681 0.559925 -0.004279 0.018022 -0.055165 2.703617 2.647970 12.194948 6.749063 -17.134928 0.903480 0.000000 0.000000 0.000000 4.092729 3.802839 7.684544 -6.901415 -4.974233 -5.412520 -3.078349 -25.103083 -46.683889 -2.672602 -31.836055 -16.695776 0.000000 0.000000 0.000000 -1.421179 6.461989 6.209639 22.602472 22.432780 -39.926629 -61.103781 -52.658563 80.299918 179.405369 6.436407 -172.101738 0.000000 0.000000 0.000000 
